<svg xmlns="http://www.w3.org/2000/svg" xmlns:xlink="http://www.w3.org/1999/xlink" width="99px" height="72px" viewBox="0 0 99 72" version="1.1">
    <defs/>
    <g id="index" stroke="none" stroke-width="1" fill="none" fill-rule="evenodd" transform="translate(-394.000000, -32.000000)">
        <g id="Header" transform="translate(394.000000, 0.000000)">
            <g id="logo" transform="translate(0.000000, 32.000000)">
                <path d="M95.9646885,66.4601265 C96.1277892,66.6110903 96.3136813,66.7861515 96.5245014,66.9853102 C96.7353216,67.184469 96.9411561,67.3758315 97.1412928,67.558689 C97.3414295,67.7422552 97.5201993,67.9059765 97.6768899,68.0512703 C97.8335806,68.196564 97.9389906,68.2964978 97.9938324,68.349654 C98.2744511,68.607639 98.4425374,68.876964 98.4966669,69.157629 C98.5507964,69.4368765 98.5507964,69.6955703 98.4966669,69.9322928 C98.4425374,70.1690153 98.3606309,70.3759702 98.2530842,70.5538665 C98.1448252,70.7317628 98.0686165,70.847289 98.0258827,70.9018627 C97.8962568,71.0521178 97.7260338,71.1811103 97.5145014,71.2888402 C97.3036813,71.3965702 97.0764799,71.4660277 96.8328971,71.4986302 C96.5893144,71.5312328 96.3400338,71.5092615 96.0864799,71.4348428 C95.8322137,71.3590065 95.5864942,71.2137127 95.3486094,70.9982528 C95.2510338,70.9018627 95.118559,70.7664915 94.9504727,70.5942653 C94.7830986,70.4227477 94.6071777,70.2391815 94.4234223,70.0456928 C94.2389547,69.8514952 94.0523504,69.6551715 93.8636094,69.4560127 C93.6734439,69.256854 93.5032209,69.0761227 93.3522281,68.9152365 L90.4306597,65.9753415 L87.477041,68.9634315 C87.3146525,69.1356578 87.1415806,69.3185153 86.9578252,69.5127127 C86.7740698,69.7062015 86.5981489,69.891894 86.4300626,70.0697902 C86.2626885,70.2476865 86.1081345,70.4085728 85.9678252,70.5538665 C85.8275158,70.6991603 85.7085734,70.8153952 85.6109978,70.9018627 C85.4706885,71.0521178 85.2947676,71.1839452 85.0839475,71.2966365 C84.8724151,71.4100365 84.6452137,71.4802028 84.4023432,71.5071353 C84.1587604,71.533359 83.9066309,71.5092615 83.6473791,71.4348428 C83.3881273,71.3590065 83.1388468,71.2080428 82.9009619,70.9819515 C82.7492568,70.8423277 82.6224799,70.6651403 82.5192065,70.4489715 C82.4166453,70.2335115 82.3546813,70.005294 82.3326022,69.7629015 C82.3112353,69.520509 82.3432856,69.2759903 82.4301777,69.0279278 C82.5163576,68.7798653 82.6794583,68.5544828 82.9173432,68.349654 C82.9928396,68.2638952 83.111782,68.142699 83.2741705,67.9860652 C83.436559,67.830849 83.6117676,67.663584 83.8019331,67.4856877 C83.9906741,67.3077915 84.1886741,67.124934 84.3937964,66.9371153 C84.5989187,66.7485877 84.7890842,66.5735265 84.9621561,66.4119315 L87.9962568,63.552834 L84.8161489,60.5661615 C84.643077,60.4045665 84.4564727,60.2295053 84.256336,60.0409777 C84.0554871,59.853159 83.866746,59.6752628 83.6879763,59.5079978 C83.5099187,59.3414415 83.2955374,59.1451177 83.0469691,58.9183177 C82.8197676,58.7035665 82.6495446,58.469679 82.5363,58.2159465 C82.4216309,57.9636315 82.3596669,57.712734 82.3489835,57.4653802 C82.3383,57.2180265 82.3788971,56.9805953 82.4707748,56.7552127 C82.5626525,56.5284128 82.6951273,56.329254 82.8681993,56.1570277 C83.0305878,55.9954327 83.2221777,55.861479 83.4443935,55.753749 C83.6658971,55.646019 83.9066309,55.589319 84.1673072,55.583649 C84.426559,55.577979 84.6964942,55.637514 84.9778252,55.7615452 C85.2591561,55.8855765 85.5461849,56.1088327 85.8381993,56.4320228 C85.9464583,56.5610152 86.0597029,56.6900077 86.1793576,56.8190003 C86.2869043,56.9373615 86.4058468,57.069189 86.5361849,57.2144828 C86.6658108,57.3597765 86.8068324,57.5079053 86.9578252,57.658869 L90.4306597,61.162929 L95.3486094,56.125134 C95.4347892,56.0280352 95.5694007,55.9259753 95.7538683,55.8175365 C95.9376237,55.7105153 96.1484439,55.637514 96.387041,55.5999502 C96.6249259,55.5623865 96.8784799,55.577979 97.1491273,55.6481452 C97.4197748,55.7190202 97.6904223,55.8770715 97.9610698,56.125134 C98.122746,56.2760977 98.2559331,56.4532853 98.3584942,56.658114 C98.4610554,56.862234 98.5208827,57.083364 98.5365518,57.3200865 C98.5536453,57.5561003 98.5208827,57.7956578 98.4396885,58.0380502 C98.3584942,58.2804427 98.2146237,58.509369 98.0095014,58.724829 C97.9226094,58.8219278 97.7986813,58.9509202 97.6362928,59.1125153 C97.4739043,59.2734015 97.2922856,59.4463365 97.0928612,59.629194 C96.8927245,59.8120515 96.6868899,59.9984527 96.4760698,60.1862715 C96.2652496,60.374799 96.0722353,60.5441902 95.8998755,60.695154 L92.8650626,63.5372415 L95.9646885,66.4601265 Z M76.3150403,57.4491499 C76.3150403,57.1904561 76.3634719,56.9459374 76.4610475,56.7141761 C76.558623,56.4831236 76.6910978,56.2811299 76.8591842,56.1081949 C77.0265583,55.9366774 77.2259827,55.8020149 77.458882,55.7049161 C77.6917813,55.6078174 77.9431986,55.5596224 78.213846,55.5596224 C78.4730978,55.5596224 78.7195295,55.6078174 78.9524288,55.7049161 C79.1846158,55.8020149 79.3876014,55.9366774 79.5613856,56.1081949 C79.7337453,56.2811299 79.871918,56.4831236 79.9751914,56.7141761 C80.0770403,56.9459374 80.1283209,57.1904561 80.1283209,57.4491499 L80.1283209,69.6091736 C80.1283209,69.8784986 80.0770403,70.1293961 79.9751914,70.3604486 C79.871918,70.5922099 79.7337453,70.7934949 79.5613856,70.9657211 C79.3876014,71.1379474 79.1846158,71.2726099 78.9524288,71.3697086 C78.7195295,71.4660986 78.4730978,71.5150024 78.213846,71.5150024 C77.9431986,71.5150024 77.6917813,71.4660986 77.458882,71.3697086 C77.2259827,71.2726099 77.0265583,71.1379474 76.8591842,70.9657211 C76.6910978,70.7934949 76.558623,70.5922099 76.4610475,70.3604486 C76.3634719,70.1293961 76.3150403,69.8784986 76.3150403,69.6091736 L76.3150403,57.4491499 Z M76.2829899,50.6742086 C76.3905367,50.4218936 76.5393928,50.2035986 76.728846,50.0207411 C76.9182993,49.8378836 77.1426518,49.6925899 77.4019036,49.5841511 C77.6625799,49.4771299 77.9375007,49.4232649 78.2295151,49.4232649 C78.5222417,49.4232649 78.7950259,49.4771299 79.0500043,49.5841511 C79.3035583,49.6925899 79.528623,49.8378836 79.7230619,50.0207411 C79.9182129,50.2035986 80.0692058,50.4218936 80.1774647,50.6742086 C80.2857237,50.9279411 80.3398532,51.1993924 80.3398532,51.4899799 C80.3398532,51.7805674 80.2857237,52.0527274 80.1774647,52.3050424 C80.0692058,52.5587749 79.9182129,52.7763611 79.7230619,52.9592186 C79.528623,53.1427849 79.3035583,53.2852436 79.0500043,53.3880124 C78.7950259,53.4900724 78.5222417,53.5403936 78.2295151,53.5403936 C77.9375007,53.5403936 77.6625799,53.4900724 77.4019036,53.3880124 C77.1426518,53.2852436 76.9182993,53.1427849 76.728846,52.9592186 C76.5393928,52.7763611 76.3905367,52.5587749 76.2829899,52.3050424 C76.1747309,52.0527274 76.1206014,51.7805674 76.1206014,51.4899799 C76.1206014,51.1993924 76.1747309,50.9279411 76.2829899,50.6742086 Z M64.8342453,55.9794859 C64.4069072,55.8292309 63.9525043,55.7321321 63.4710367,55.6888984 C62.9902813,55.6463734 62.559382,55.6407034 62.1811878,55.6725971 C61.6512885,55.7590646 61.1527273,55.9015234 60.6883532,56.1006821 C60.2232669,56.3005496 59.7952165,56.5287671 59.4056266,56.7867521 C59.0160367,57.0454459 58.6698928,57.3197321 58.367195,57.6103196 C58.2048065,57.7662446 58.060936,57.9172084 57.9291734,58.0639196 L57.7831662,57.4494334 C57.6428568,56.7491884 57.4263388,56.2622771 57.1343245,55.9872821 C56.8423101,55.7129959 56.495454,55.5754984 56.0958928,55.5754984 C55.4028928,55.5754984 55.0567489,55.9199509 55.0567489,56.6095646 L55.0567489,69.6094571 C55.0567489,69.8787821 55.1051806,70.1289709 55.2027561,70.3600234 C55.3003317,70.5924934 55.4356554,70.7937784 55.6087273,70.9660046 C55.7810871,71.1382309 55.9847849,71.2728934 56.2169719,71.3692834 C56.4498712,71.4663821 56.7005763,71.5145771 56.9712237,71.5145771 C57.2319,71.5145771 57.4769072,71.4663821 57.7098065,71.3692834 C57.9427058,71.2728934 58.1456914,71.1382309 58.3187633,70.9660046 C58.4918353,70.7937784 58.6292957,70.5924934 58.7325691,70.3600234 C58.8358424,70.1289709 58.887123,69.8787821 58.887123,69.6094571 L58.887123,63.1336084 C58.9298568,62.6920571 59.0274324,62.2724771 59.1791374,61.8741596 C59.3301302,61.4758421 59.5217201,61.1172146 59.7553317,60.7996946 C59.9875187,60.4828834 60.2581662,60.2107234 60.5665619,59.9846321 C60.8749576,59.7578321 61.2075691,59.5863146 61.5651086,59.4672446 C61.9319072,59.3488834 62.3029791,59.3035234 62.6761878,59.3304559 C63.0493964,59.3573884 63.4140583,59.3758159 63.7715978,59.3871559 C64.214605,59.4084184 64.5614612,59.4055834 64.8100295,59.3786509 C65.0593101,59.3517184 65.3028928,59.2687946 65.5407777,59.1284621 C65.7679791,58.9994696 65.9595691,58.8130684 66.1162597,58.5713846 C66.2736626,58.3289921 66.3520079,58.0575409 66.3520079,57.7556134 C66.3520079,57.3041396 66.2060007,56.9320459 65.9139863,56.6414584 C65.6219719,56.3508709 65.2615835,56.1304496 64.8342453,55.9794859 Z M43.1543137,58.9513455 C42.6678604,59.134203 42.2348245,59.3872267 41.855918,59.709708 C41.4777237,60.032898 41.1614935,60.4120792 40.9065151,60.8479605 C40.6529612,61.2845505 40.4927094,61.7615392 40.4278964,62.2775092 L48.721105,62.2775092 C48.677659,61.7615392 48.5394863,61.2845505 48.3072993,60.8479605 C48.0744,60.4120792 47.7774,60.032898 47.4148748,59.709708 C47.0516374,59.3872267 46.635695,59.134203 46.1649108,58.9513455 C45.6941266,58.7677792 45.1991266,58.6763505 44.6799108,58.6763505 C44.1500115,58.6763505 43.6414791,58.7677792 43.1543137,58.9513455 Z M41.4421122,70.885278 C40.4741914,70.465698 39.6245007,69.8972805 38.8944647,69.181443 C38.1644288,68.4663142 37.5882345,67.6229017 37.165882,66.6540405 C36.7442417,65.6851792 36.5334216,64.6518217 36.5334216,63.5532592 C36.5334216,62.3909092 36.7492273,61.3221142 37.1829755,60.347583 C37.6152993,59.3730517 38.2050259,58.5338917 38.9514432,57.8286855 C39.6978604,57.124188 40.5632201,56.571363 41.5482345,56.1737542 C42.5318245,55.774728 43.5766662,55.5755692 44.6799108,55.5755692 C45.7838676,55.5755692 46.8137525,55.769058 47.7717022,56.1567442 C48.7296518,56.5444305 49.5643856,57.0830805 50.2787525,57.7719855 C50.9924072,58.4608905 51.5550691,59.2794967 51.9660259,60.2270955 C52.377695,61.1739855 52.5835295,62.2030905 52.5835295,63.3108667 C52.5835295,63.8495167 52.4425079,64.2102705 52.161177,64.393128 C51.879846,64.5759855 51.3990906,64.6674142 50.7174863,64.6674142 L40.460659,64.6674142 C40.504105,65.1628305 40.6415655,65.6341492 40.8744647,66.0806617 C41.1066518,66.527883 41.4072129,66.9205305 41.775436,67.259313 C42.1422345,67.5988042 42.5645871,67.8709642 43.0410691,68.075793 C43.5168388,68.279913 44.0253712,68.381973 44.5666662,68.381973 C45.0851698,68.381973 45.5887165,68.2933792 46.075882,68.115483 C46.5630475,67.9375867 47.0010691,67.6824367 47.390659,67.3486155 C47.6171482,67.219623 47.8877957,67.1494567 48.201177,67.1381167 C48.5152705,67.1281942 48.8186806,67.1763892 49.110695,67.2841192 C49.4027094,67.3918492 49.6512777,67.5669105 49.8571122,67.809303 C50.0622345,68.0516955 50.1647957,68.3550405 50.1647957,68.7214642 C50.1647957,69.1410442 49.9917237,69.5237692 49.6462921,69.867513 C49.299436,70.2119655 48.8557165,70.505388 48.3151338,70.7477805 C47.7745511,70.990173 47.1684432,71.1787005 46.4975223,71.313363 C45.8266014,71.4480255 45.1770475,71.514648 44.5495727,71.514648 C43.4470403,71.514648 42.4100331,71.304858 41.4421122,70.885278 Z M35.3177158,56.4075 C35.1503417,56.2409437 34.953054,56.1112425 34.7251403,56.0198137 C34.4986511,55.928385 34.2550683,55.883025 33.9951043,55.883025 L32.3726439,55.883025 L32.3726439,52.5398512 C32.3726439,52.2811575 32.3206511,52.0366387 32.2188022,51.8048775 C32.1155288,51.573825 31.9773561,51.3718312 31.8049964,51.1988962 C31.6319245,51.0273787 31.4282266,50.8927162 31.1960396,50.7956175 C30.9631403,50.6985187 30.7167086,50.6503237 30.4574568,50.6503237 C30.1868094,50.6503237 29.9353921,50.6985187 29.703205,50.7956175 C29.4695935,50.8927162 29.2701691,51.0273787 29.102795,51.1988962 C28.9347086,51.3718312 28.8022338,51.573825 28.7046583,51.8048775 C28.607795,52.0366387 28.5586511,52.2811575 28.5586511,52.5398512 L28.5586511,55.883025 L27.0173849,55.883025 C26.7574209,55.883025 26.5138381,55.928385 26.2873489,56.0198137 C26.0594353,56.1112425 25.8621475,56.2409437 25.6947734,56.4075 C25.5266871,56.5740562 25.3942122,56.7710887 25.2966367,56.99718 C25.1990612,57.2225625 25.1506295,57.470625 25.1506295,57.73995 C25.1506295,57.997935 25.1990612,58.2374925 25.2966367,58.4586225 C25.3942122,58.6790437 25.5266871,58.8753675 25.6947734,59.0483025 C25.8621475,59.2205287 26.0594353,59.3544825 26.2873489,59.4515812 C26.5138381,59.54868 26.7574209,59.596875 27.0173849,59.596875 L28.5586511,59.596875 L28.5586511,69.6093862 C28.5586511,69.8787112 28.607795,70.1289 28.7046583,70.3606612 C28.8022338,70.5924225 28.9347086,70.7937075 29.102795,70.9659337 C29.2701691,71.13816 29.4695935,71.2728225 29.703205,71.3692125 C29.9353921,71.4663112 30.1868094,71.5145062 30.4574568,71.5145062 C30.7167086,71.5145062 30.9631403,71.4663112 31.1960396,71.3692125 C31.4282266,71.2728225 31.6319245,71.13816 31.8049964,70.9659337 C31.9773561,70.7937075 32.1155288,70.5924225 32.2188022,70.3606612 C32.3206511,70.1289 32.3726439,69.8787112 32.3726439,69.6093862 L32.3726439,59.596875 L33.9951043,59.596875 C34.2550683,59.596875 34.4986511,59.54868 34.7251403,59.4515812 C34.953054,59.3544825 35.1503417,59.2205287 35.3177158,59.0483025 C35.4858022,58.8753675 35.618277,58.6790437 35.7158525,58.4586225 C35.8134281,58.2374925 35.8618597,57.997935 35.8618597,57.73995 C35.8618597,57.470625 35.8134281,57.2225625 35.7158525,56.99718 C35.618277,56.7710887 35.4858022,56.5740562 35.3177158,56.4075 Z M19.480636,57.4491499 C19.480636,57.1904561 19.5290676,56.9459374 19.6266432,56.7141761 C19.7242187,56.4831236 19.8566935,56.2811299 20.0247799,56.1081949 C20.192154,55.9366774 20.3915784,55.8020149 20.6244777,55.7049161 C20.857377,55.6078174 21.1087942,55.5596224 21.3794417,55.5596224 C21.6386935,55.5596224 21.8851252,55.6078174 22.1180245,55.7049161 C22.3502115,55.8020149 22.5531971,55.9366774 22.7269813,56.1081949 C22.899341,56.2811299 23.0375137,56.4831236 23.1407871,56.7141761 C23.242636,56.9459374 23.2939165,57.1904561 23.2939165,57.4491499 L23.2939165,69.6091736 C23.2939165,69.8784986 23.242636,70.1293961 23.1407871,70.3604486 C23.0375137,70.5922099 22.899341,70.7934949 22.7269813,70.9657211 C22.5531971,71.1379474 22.3502115,71.2726099 22.1180245,71.3697086 C21.8851252,71.4660986 21.6386935,71.5150024 21.3794417,71.5150024 C21.1087942,71.5150024 20.857377,71.4660986 20.6244777,71.3697086 C20.3915784,71.2726099 20.192154,71.1379474 20.0247799,70.9657211 C19.8566935,70.7934949 19.7242187,70.5922099 19.6266432,70.3604486 C19.5290676,70.1293961 19.480636,69.8784986 19.480636,69.6091736 L19.480636,57.4491499 Z M19.4485856,50.6742086 C19.5561324,50.4218936 19.7049885,50.2035986 19.8944417,50.0207411 C20.083895,49.8378836 20.3082475,49.6925899 20.5674993,49.5841511 C20.8281755,49.4771299 21.1030964,49.4232649 21.3951108,49.4232649 C21.6878374,49.4232649 21.9606216,49.4771299 22.2156,49.5841511 C22.469154,49.6925899 22.6942187,49.8378836 22.8886576,50.0207411 C23.0838086,50.2035986 23.2348014,50.4218936 23.3430604,50.6742086 C23.4513194,50.9279411 23.5054489,51.1993924 23.5054489,51.4899799 C23.5054489,51.7805674 23.4513194,52.0527274 23.3430604,52.3050424 C23.2348014,52.5587749 23.0838086,52.7763611 22.8886576,52.9592186 C22.6942187,53.1427849 22.469154,53.2852436 22.2156,53.3880124 C21.9606216,53.4900724 21.6878374,53.5403936 21.3951108,53.5403936 C21.1030964,53.5403936 20.8281755,53.4900724 20.5674993,53.3880124 C20.3082475,53.2852436 20.083895,53.1427849 19.8944417,52.9592186 C19.7049885,52.7763611 19.5561324,52.5587749 19.4485856,52.3050424 C19.3403266,52.0527274 19.2861971,51.7805674 19.2861971,51.4899799 C19.2861971,51.1993924 19.3403266,50.9279411 19.4485856,50.6742086 Z M13.3626496,56.8274344 C13.1247647,56.2838231 12.7971388,55.8075431 12.3811964,55.3985944 C11.9645417,54.9896456 11.4802252,54.6664556 10.9282468,54.4297331 C10.3769806,54.1930106 9.78725396,54.0739406 9.15977914,54.0739406 L5.8329518,54.0739406 L5.8329518,62.7617981 L9.15977914,62.7617981 C9.78725396,62.7617981 10.3769806,62.6632819 10.9282468,62.4634144 C11.4802252,62.2642556 11.9645417,61.9821731 12.3811964,61.6157494 C12.7971388,61.2500344 13.1247647,60.8106094 13.3626496,60.2996006 C13.6005345,59.7878831 13.7201892,59.2145044 13.7201892,58.5794644 C13.7201892,57.9550556 13.6005345,57.3710456 13.3626496,56.8274344 Z M16.7948871,61.5349519 C16.346182,62.4612881 15.742923,63.2600494 14.9851101,63.9333619 C14.2280094,64.6059656 13.3469806,65.1304406 12.3405993,65.5074956 C11.334218,65.8845506 10.2737072,66.0723694 9.15977914,66.0723694 L5.89776475,66.0723694 L5.89776475,69.6097406 C5.89776475,69.8783569 5.84862086,70.1292544 5.75175755,70.3603069 C5.65418201,70.5920681 5.51885827,70.7933531 5.34578633,70.9662881 C5.17271439,71.1385144 4.96972878,71.2724681 4.73754173,71.3695669 C4.50464245,71.4666656 4.25322518,71.5148606 3.9825777,71.5148606 C3.71193022,71.5148606 3.46051295,71.4666656 3.2283259,71.3695669 C2.99471439,71.2724681 2.79528993,71.1385144 2.62791583,70.9662881 C2.45911727,70.7933531 2.32735468,70.5920681 2.22977914,70.3603069 C2.1322036,70.1292544 2.08377194,69.8783569 2.08377194,69.6097406 L2.08377194,52.6528969 C2.07308849,52.4374369 2.04103813,52.2248119 1.9861964,52.0143131 C1.93206691,51.8045231 1.90571439,51.6025294 1.90571439,51.4090406 C1.90571439,51.2913881 1.92423237,51.1829494 1.96198058,51.0865594 C2.00044101,50.9894606 2.06810288,50.9086631 2.16496619,50.8441669 C2.26254173,50.7796706 2.39786547,50.7286406 2.57093741,50.6903681 C2.74400935,50.6528044 2.96551295,50.6343769 3.23616043,50.6343769 L9.15977914,50.6343769 C10.2737072,50.6343769 11.334218,50.8356619 12.3405993,51.2403581 C13.3469806,51.6436369 14.2280094,52.1950444 14.9851101,52.8945806 C15.742923,53.5948256 16.346182,54.4240631 16.7948871,55.3815844 C17.2435921,56.3405231 17.4686568,57.3738806 17.4686568,58.4823656 C17.4686568,59.5915594 17.2435921,60.6086156 16.7948871,61.5349519 Z" id="piter-ix" fill="#24416F"/>
                <path d="M2.32514676,39.3342784 C0.884305036,39.3342784 -0.25597554,38.0223821 0.049571223,36.5354246 C0.272499281,35.4531634 1.2817295,34.7068496 2.39138417,34.7068496 L21.4634849,34.7068496 L38.8518734,17.4034271 C39.2913194,16.9661284 39.8753482,16.7258621 40.4964129,16.7258621 C41.1174777,16.7258621 41.7007942,16.9661284 42.1402403,17.4027184 C43.0461971,18.3056659 43.0461971,19.7727784 42.1402403,20.6750171 L24.7611108,37.9692259 C23.8829309,38.8431146 22.6913698,39.3342784 21.4492403,39.3342784 L2.32514676,39.3342784 Z M78.1582209,39.3342784 C76.9075446,39.3342784 75.7088612,38.8395709 74.823559,37.9600121 L57.4544007,20.6750171 C56.5477317,19.7727784 56.5477317,18.3056659 57.4544007,17.4034271 C57.8938468,16.9661284 58.4771633,16.7258621 59.0982281,16.7258621 C59.7192928,16.7258621 60.3033216,16.9661284 60.7420554,17.4034271 L78.1311561,34.7068496 L96.5829043,34.7068496 C97.692559,34.7068496 98.7025014,35.4531634 98.924005,36.5354246 C99.230264,38.0223821 98.0899835,39.3342784 96.6491417,39.3342784 L78.1582209,39.3342784 Z" id="bridge" fill="#24416F"/>
                <path d="M50.2699921,12.671316 C49.5990712,12.671316 48.9680353,12.4112047 48.4929777,11.939886 L43.6334309,7.1047935 C43.1918482,6.66607725 42.9504022,6.08348475 42.9511144,5.46403725 C42.9518266,4.84600725 43.1946971,4.2669585 43.6348554,3.831786 C44.072877,3.39590475 44.6569058,3.154221 45.2772583,3.154221 C45.8968986,3.154221 46.4816396,3.39590475 46.9210856,3.8332035 L50.2714165,7.16645475 L56.7861863,0.679266 C57.2263446,0.2412585 57.8110856,0.0002835 58.4321504,0.0002835 C59.0539273,0.0002835 59.6379561,0.2412585 60.0766899,0.6806835 C60.9812223,1.58150475 60.9812223,3.04861725 60.0752655,3.950856 L52.0484309,11.9384685 C51.5733734,12.4112047 50.9416252,12.671316 50.2699921,12.671316" id="gull" fill="#42C9F2"/>
            </g>
        </g>
    </g>
</svg>