<svg xmlns="http://www.w3.org/2000/svg" xmlns:xlink="http://www.w3.org/1999/xlink" width="24px" height="24px" viewBox="0 0 24 24" version="1.1">
    <g id="Page-1" stroke="none" stroke-width="1" fill="none" fill-rule="evenodd">
        <g id="__modal_connect" transform="translate(-416.000000, -28.000000)" fill="#9B9B9B">
            <path d="M439.669291,50.015748 L429.606299,39.9527559 L439.527559,29.984252 C439.77953,29.7322814 439.905512,29.4566934 439.905512,29.1574788 C439.905512,28.8582672 439.77953,28.5984262 439.527559,28.3779528 C439.275589,28.1259822 438.992127,28 438.677165,28 C438.362204,28 438.094489,28.1259822 437.874016,28.3779528 L427.952756,38.2519685 L418.125984,28.4724409 C417.905511,28.2204704 417.629923,28.0944882 417.299213,28.0944882 C416.968502,28.0944882 416.692914,28.2204704 416.472441,28.4724409 C416.220471,28.7244115 416.094488,29.007873 416.094488,29.3228346 C416.094488,29.6377963 416.220471,29.9055108 416.472441,30.1259843 L426.251969,39.9055118 L416.377953,49.8740157 C416.125983,50.0944892 416,50.3622031 416,50.6771654 C416,50.9921276 416.125983,51.2598415 416.377953,51.480315 C416.598426,51.7007885 416.86614,51.8110236 417.181102,51.8110236 C417.496065,51.8110236 417.763779,51.7007885 417.984252,51.480315 L427.952756,41.5590551 L438.015748,51.6220472 C438.267719,51.874017 438.55118,52 438.866142,52 C439.181103,52 439.448818,51.874017 439.669291,51.6220472 C439.889765,51.4015738 440,51.1338599 440,50.8188976 C440,50.5039354 439.889765,50.2362215 439.669291,50.015748 Z" id="ico_close"/>
        </g>
    </g>
</svg>