<?xml version="1.0" encoding="UTF-8"?>
<svg width="28px" height="24px" viewBox="0 0 28 24" version="1.1" xmlns="http://www.w3.org/2000/svg" xmlns:xlink="http://www.w3.org/1999/xlink">
    <!-- Generator: sketchtool 49.2 (51160) - http://www.bohemiancoding.com/sketch -->
    <title>9778514C-6152-4698-A7E9-398624DA5F51</title>
    <desc>Created with sketchtool.</desc>
    <defs></defs>
    <g id="Page-1" stroke="none" stroke-width="1" fill="none" fill-rule="evenodd">
        <g id="Main-/-Header" transform="translate(-1128.000000, -80.000000)" fill="#24416F" fill-rule="nonzero">
            <g id="Header">
                <g id="login" transform="translate(1110.000000, 64.000000)">
                    <path d="M44.6875,16 C45.41235,16 46,16.5968889 46,17.3333333 L46,38.6666667 C46,39.4030222 45.41235,40 44.6875,40 L28.0625,40 C27.33765,40 26.75,39.4030222 26.75,38.6666667 L26.75,33.3332444 C26.75,32.5968889 27.33765,31.9999111 28.0625,31.9999111 C28.78735,31.9999111 29.375,32.5968889 29.375,33.3332444 L29.375,37.3333333 L43.375,37.3333333 L43.375,18.6666667 L29.375,18.6666667 L29.375,22.6666667 C29.375,23.4030222 28.78735,24 28.0625,24 C27.33765,24 26.75,23.4030222 26.75,22.6666667 L26.75,17.3333333 C26.75,16.5969778 27.33765,16 28.0625,16 L44.6875,16 Z M32.8218,31.0573333 L34.5186875,29.3336 L19.3125,29.3336 C18.58765,29.3336 18,28.7366222 18,28.0002667 C18,27.2639111 18.58765,26.6669333 19.3125,26.6669333 L34.518775,26.6669333 L32.8218,24.9429333 C32.309225,24.4222222 32.309225,23.5780444 32.8218,23.0573333 C33.334375,22.5367111 34.1653625,22.5366222 34.6779375,23.0573333 L38.6154375,27.0574222 C38.6168375,27.0588444 38.617975,27.0604444 38.619375,27.0618667 C38.648425,27.0916444 38.6761625,27.1226667 38.702325,27.1550222 C38.7150125,27.1706667 38.7260375,27.1872889 38.7379375,27.2033778 C38.751675,27.2221333 38.7659375,27.2403556 38.7787125,27.2598222 C38.7913125,27.2789333 38.8021625,27.2987556 38.8137125,27.3184 C38.824125,27.3360889 38.8350625,27.3534222 38.8446875,27.3716444 C38.8551875,27.3916444 38.8641125,27.4121778 38.8735625,27.4325333 C38.8824,27.4515556 38.89185,27.4703111 38.8998125,27.4898667 C38.9078625,27.5096 38.9143375,27.5297778 38.921425,27.5498667 C38.9288625,27.5709333 38.936825,27.5916444 38.9432125,27.6130667 C38.9491625,27.6330667 38.9535375,27.6534222 38.958525,27.6736 C38.9640375,27.6955556 38.970075,27.7172444 38.97445,27.7396444 C38.979,27.7629333 38.9817125,27.7864 38.9850375,27.8098667 C38.98775,27.8295111 38.991425,27.8488 38.99335,27.8686222 C38.99755,27.9117333 38.9997375,27.9549333 38.999825,27.9982222 C38.999825,27.9988444 38.9999125,27.9995556 38.9999125,28.0001778 C38.9999125,28.0008 38.999825,28.0015111 38.999825,28.0021333 C38.9997375,28.0453333 38.99755,28.0886222 38.99335,28.1316444 C38.991425,28.1517333 38.9876625,28.1712889 38.9848625,28.1911111 C38.981625,28.2143111 38.9789125,28.2376 38.97445,28.2606222 C38.9699875,28.2832 38.9638625,28.3052444 38.95835,28.3273778 C38.95345,28.3473778 38.9491625,28.3673778 38.9433,28.3871111 C38.9367375,28.4088889 38.928775,28.4299556 38.9211625,28.4512889 C38.9141625,28.4710222 38.907775,28.4908444 38.8999,28.5103111 C38.8917625,28.5302222 38.882225,28.5494222 38.873125,28.5688889 C38.86385,28.5888 38.8551875,28.6088889 38.8448625,28.6284444 C38.8348875,28.6472889 38.8236,28.6651556 38.8128375,28.6834667 C38.8016375,28.7024889 38.79105,28.7217778 38.7788,28.7403556 C38.7654125,28.7607111 38.7505375,28.7798222 38.7361,28.7993778 C38.7248125,28.8145778 38.7144,28.8303111 38.7024125,28.8451556 C38.6749375,28.8792889 38.6458,28.912 38.615175,28.9432 L34.67785,32.9429333 C34.42165,33.2033778 34.0857375,33.3335111 33.749825,33.3335111 C33.414,33.3335111 33.0780875,33.2032889 32.8218,32.9429333 C32.309225,32.4222222 32.309225,31.5780444 32.8218,31.0573333 Z" id="ico_login"></path>
                </g>
            </g>
        </g>
    </g>
</svg>