<svg width="192px" height="192px" viewBox="0 0 192 192" version="1.1" xmlns="http://www.w3.org/2000/svg" xmlns:xlink="http://www.w3.org/1999/xlink">
    <g id="Page-1" stroke="none" stroke-width="1" fill="none" fill-rule="evenodd">
        <g id="index" transform="translate(-1352.000000, -1137.000000)" fill="#24416F" fill-rule="nonzero">
            <g id="Looking-glass" transform="translate(1192.000000, 1113.000000)">
                <g id="ico-glass" transform="translate(160.000000, 24.000000)">
                    <path d="M56.8992136,113.828571 C41.907804,113.828571 27.5978221,108 17.0356927,97.3714286 C6.47356322,86.7428571 0.681427707,72.3428571 0.681427707,57.2571429 C0.681427707,42.1714286 6.47356322,27.7714286 17.0356927,17.1428571 C27.5978221,6.51428571 41.907804,0.685714286 56.8992136,0.685714286 C71.8906231,0.685714286 86.200605,6.51428571 96.7627344,17.1428571 C118.568421,39.0857143 118.568421,75.0857143 96.7627344,97.3714286 C86.200605,108 71.8906231,113.828571 56.8992136,113.828571 Z M56.8992136,7.2 C43.6113733,7.2 31.3456745,12.3428571 21.8056866,21.9428571 C12.2656987,31.5428571 7.15499093,43.8857143 7.15499093,57.2571429 C7.15499093,70.6285714 12.2656987,82.9714286 21.8056866,92.5714286 C31.3456745,102.171429 43.6113733,107.314286 56.8992136,107.314286 C70.1870538,107.314286 82.4527526,101.828571 91.9927405,92.5714286 C101.532728,83.3142857 106.643436,70.6285714 106.643436,57.2571429 C106.643436,43.8857143 101.532728,31.5428571 91.9927405,21.9428571 C82.4527526,12.3428571 70.1870538,7.2 56.8992136,7.2 Z" id="Shape"></path>
                    <path d="M56.8992136,102.514286 C44.9742287,102.514286 33.7306715,97.7142857 25.2128252,89.1428571 C7.83641863,71.6571429 7.83641863,42.8571429 25.2128252,25.0285714 C33.7306715,16.4571429 44.9742287,11.6571429 56.8992136,11.6571429 C68.8241984,11.6571429 80.0677556,16.4571429 88.5856019,25.0285714 C105.962008,42.5142857 105.962008,71.3142857 88.5856019,89.1428571 C80.0677556,97.7142857 68.8241984,102.514286 56.8992136,102.514286 Z M56.8992136,18.8571429 C46.6777979,18.8571429 37.13781,22.9714286 29.9828191,30.1714286 C14.9914096,45.2571429 14.9914096,69.6 29.9828191,84.3428571 C37.13781,91.5428571 46.6777979,95.6571429 56.8992136,95.6571429 C67.1206292,95.6571429 76.6606171,91.5428571 83.815608,84.3428571 C98.8070175,69.2571429 98.8070175,44.9142857 83.815608,30.1714286 C76.6606171,22.6285714 67.1206292,18.8571429 56.8992136,18.8571429 Z" id="Shape"></path>
                    <path d="M56.8992136,89.8285714 C50.4256503,89.8285714 43.6113733,87.4285714 38.8413793,82.2857143 C37.4785239,80.9142857 37.4785239,78.8571429 38.8413793,77.4857143 C40.2042347,76.1142857 42.2485178,76.1142857 43.6113733,77.4857143 C51.107078,85.0285714 63.0320629,85.0285714 70.5277677,77.4857143 C71.8906231,76.1142857 73.9349062,76.1142857 75.2977616,77.4857143 C76.6606171,78.8571429 76.6606171,80.9142857 75.2977616,82.2857143 C70.1870538,87.4285714 63.3727768,89.8285714 56.8992136,89.8285714 Z" id="Shape"></path>
                    <path d="M90.9705989,113.828571 C88.9263158,113.828571 86.8820327,113.142857 85.5191773,111.428571 L84.8377495,110.742857 C83.4748941,109.371429 82.4527526,107.314286 82.4527526,105.257143 C82.4527526,103.2 83.1341803,101.142857 84.8377495,99.7714286 L99.1477314,85.3714286 C101.873442,82.6285714 106.98415,82.6285714 110.050575,85.3714286 L110.732002,86.0571429 C112.094858,87.4285714 113.116999,89.4857143 113.116999,91.5428571 C113.116999,93.6 112.435572,95.6571429 110.732002,97.0285714 L96.4220206,111.428571 C94.7184513,112.8 93.014882,113.828571 90.9705989,113.828571 Z M104.599153,89.8285714 C104.599153,89.8285714 104.258439,89.8285714 103.917725,90.1714286 L89.6077435,104.571429 C89.2670296,104.914286 89.2670296,104.914286 89.2670296,105.257143 C89.2670296,105.257143 89.2670296,105.6 89.6077435,105.942857 L90.2891712,106.628571 C90.6298851,106.971429 90.9705989,106.971429 91.3113128,106.628571 L105.621295,92.2285714 C105.962008,91.8857143 105.962008,91.8857143 105.962008,91.5428571 C105.962008,91.2 105.962008,91.2 105.621295,90.8571429 L104.939867,90.1714286 C104.939867,89.8285714 104.599153,89.8285714 104.599153,89.8285714 Z" id="Shape"></path>
                    <path d="M173.082638,191.657143 C168.653358,191.657143 164.224077,189.6 161.498367,186.171429 L95.399879,107.314286 C94.3777374,105.942857 94.3777374,103.885714 95.7405929,102.514286 L102.55487,95.6571429 C103.917725,94.2857143 105.962008,94.2857143 107.324864,95.3142857 L185.68905,161.828571 C189.096189,164.571429 190.799758,168.685714 191.140472,172.8 C191.481186,177.6 189.436903,182.4 186.029764,185.828571 C181.941198,189.6 177.511918,191.657143 173.082638,191.657143 Z M102.214156,105.257143 L166.609074,181.714286 C169.675499,185.485714 176.489776,185.485714 180.578342,181.371429 C182.622626,179.314286 183.985481,176.571429 183.644767,173.485714 C183.644767,171.085714 182.622626,169.028571 180.919056,167.314286 L104.599153,102.857143 L102.214156,105.257143 Z" id="Shape"></path>
                </g>
            </g>
        </g>
    </g>
</svg>